<svg xmlns="http://www.w3.org/2000/svg" viewBox="0 0 512 340" role="img">
  <g fill="none" stroke="#0b1a2e" stroke-width="11"
     stroke-linejoin="round" stroke-linecap="round">

    <!-- left flag: pole, finial, pennant -->
    <path d="M104 18 V60" stroke-width="12"/>
    <circle cx="104" cy="12" r="10" fill="#0056db"/>
    <path d="M104 22 C144 8 174 18 192 34 C168 44 144 48 104 66 Z"
          fill="#fec521" stroke-width="10"/>

    <!-- right flag -->
    <path d="M400 18 V60" stroke-width="12"/>
    <circle cx="400" cy="12" r="10" fill="#0056db"/>
    <path d="M400 22 C440 8 470 18 488 34 C464 44 440 48 400 66 Z"
          fill="#fec521" stroke-width="10"/>

    <!-- left tower -->
    <path d="M66 132 V250 H142 V132 Z" fill="#fec521"/>
    <path d="M46 138 L104 46 L162 138 Z" fill="#0056db"/>

    <!-- right tower -->
    <path d="M362 132 V250 H438 V132 Z" fill="#fec521"/>
    <path d="M342 138 L400 46 L458 138 Z" fill="#0056db"/>

    <!-- centre wall -->
    <path d="M142 250 V168 Q252 140 362 168 V250 Z" fill="#0056db"/>
    <!-- arch surround -->
    <path d="M182 250 V226 Q182 168 252 168 Q322 168 322 226 V250 Z" fill="#fec521"/>
    <!-- arch opening -->
    <path d="M208 250 V228 Q208 194 252 194 Q296 194 296 228 V250 Z" fill="#0b1a2e"/>

    <!-- bouncy bed, two stacked tubes -->
    <path d="M28 314 V286 Q28 250 74 250 H430 Q476 250 476 286 V314 Z" fill="#0056db"/>
    <path d="M28 288 H476" stroke-width="9"/>
  </g>
</svg>
